 http://www.imdb.com/title/tt1431115/

Mrs. Miracle (TV 2009)
90 min  -  Comedy | Fantasy | Romance

Overwhelmed widower Seth Webster is searching for a housekeeper to help him with his unruly six year old twin sons. "Mrs. Miracle" mysteriously appears and quickly becomes an irreplaceable nanny, chef, friend... and matchmaker.


Director: Michael Scott
Writers: David Golden (teleplay), Debbie Macomber (book)
Stars: James Van Der Beek, Erin Karpluk and Doris Roberts
Release Date: 5 December 2009 (USA) 


Mrs.Miracle 2009 DvdRip H264.AVI

Format                                   : AVI
Format/Info                              : Audio Video Interleave
File size                                : 632 MiB
Duration                                 : 1h 32mn
Overall bit rate                         : 960 Kbps

Video
ID                                       : 0
Format                                   : AVC
Format/Info                              : Advanced Video Codec
Format profile                           : Main@L4.0
Format settings, CABAC                   : Yes
Format settings, ReFrames                : 2 frames
Codec ID                                 : H264
Duration                                 : 1h 32mn
Bit rate                                 : 45.4 Kbps
Width                                    : 720 pixels
Height                                   : 480 pixels
Display aspect ratio                     : 16:9
Frame rate                               : 29.970 fps
Standard                                 : NTSC
Color space                              : YUV
Chroma subsampling                       : 4:2:0
Bit depth                                : 8 bits
Scan type                                : Progressive
Bits/(Pixel*Frame)                       : 0.004
Stream size                              : 29.9 MiB (5%)

Audio
ID                                       : 1
Format                                   : MPEG Audio
Codec ID                                 : 55
Codec ID/Hint                            : MP3
Duration                                 : 1h 32mn
Bit rate                                 : 192 Kbps
Channel(s)                               : 2 channels
Sampling rate                            : 48.0 KHz
Compression mode                         : Lossy
Stream size                              : 127 MiB (20%)
Alignment                                : Aligned on interleaves















